<svg xmlns="http://www.w3.org/2000/svg" width="39.865" height="38.965" viewBox="0 0 39.865 38.965">
  <path id="online-exam_1_1_" data-name="online-exam (1) (1)" d="M2.692,0h34.38a2.7,2.7,0,0,1,2.692,2.692v33.48a2.7,2.7,0,0,1-2.692,2.692H2.692A2.7,2.7,0,0,1,0,36.173V2.692A2.7,2.7,0,0,1,2.692,0ZM32.568,31.105a.861.861,0,0,0,0-1.718H13.857a.861.861,0,0,0,0,1.718Zm0-7.708a.861.861,0,0,0,0-1.718H13.857a.861.861,0,0,0,0,1.718Zm-26.1-.421a.815.815,0,1,1,1.356-.906l.44.485,1.544-1.942a.815.815,0,0,1,1.259,1.032L8.86,24.313a.883.883,0,0,1-.194.184.815.815,0,0,1-1.129-.223Zm3.2,5.3a.718.718,0,0,1,1.016,0,.735.735,0,0,1,0,1.029l-.88.9.88.9a.725.725,0,0,1,0,1.019.712.712,0,0,1-1.013,0l-.874-.893-.88.9a.715.715,0,0,1-1.016,0,.735.735,0,0,1,0-1.029l.883-.9-.883-.9a.722.722,0,0,1,0-1.019.705.705,0,0,1,1.01,0l.877.89.877-.9Zm.942-14.562H8.527v.8H11.09V16.18H6.437V9.64h4.6l-.262,1.686H8.527v.88h2.09v1.514Zm3.6-4.071.722,1.747h.107l.722-1.747h2.265L16.582,12.8l1.456,3.382h-2.32L14.931,14.3h-.094l-.773,1.883H11.847l1.421-3.32L11.847,9.624Zm6.291,6.54H18.3L20,9.643h3.236l1.686,6.537h-2.2l-.146-1.036H20.656Zm.848-4.53-.324,1.828h1.152l-.324-1.828Zm6.2,4.53H25.371l.4-6.537H28.5l.815,3.327h.074L30.2,9.643H32.93l.4,6.537H31.144l-.126-3.168h-.074L30.15,16.18H28.532l-.786-3.171h-.065ZM38.186,6.5H1.712v29.93a.741.741,0,0,0,.744.744H37.406a.741.741,0,0,0,.744-.744V6.5ZM34.509,2.336a1.33,1.33,0,1,1-1.33,1.33A1.33,1.33,0,0,1,34.509,2.336Zm-9.009,0a1.33,1.33,0,1,1-1.33,1.33,1.33,1.33,0,0,1,1.33-1.33Zm4.5,0a1.33,1.33,0,1,1-1.33,1.33A1.33,1.33,0,0,1,30,2.336Z" transform="translate(0.05 0.05)" fill="#fff" stroke="#fff" stroke-width="0.1" fill-rule="evenodd"/>
</svg>
