<svg xmlns="http://www.w3.org/2000/svg" width="48.157" height="33.64" viewBox="0 0 48.157 33.64">
  <path id="Icon_metro-books" data-name="Icon metro-books" d="M12.383,8.571H3.973a1.406,1.406,0,0,0-1.4,1.4V40.809a1.406,1.406,0,0,0,1.4,1.4h8.41a1.406,1.406,0,0,0,1.4-1.4V9.973a1.406,1.406,0,0,0-1.4-1.4Zm-1.4,8.41H5.375v-2.8h5.607ZM26.4,8.571H17.99a1.406,1.406,0,0,0-1.4,1.4V40.809a1.406,1.406,0,0,0,1.4,1.4H26.4a1.406,1.406,0,0,0,1.4-1.4V9.973a1.406,1.406,0,0,0-1.4-1.4ZM25,16.981H19.391v-2.8H25Zm11.086-6.243-7.51,3.784a1.406,1.406,0,0,0-.621,1.882L40.566,41.44a1.406,1.406,0,0,0,1.882.621l7.51-3.784a1.406,1.406,0,0,0,.621-1.882L37.966,11.36a1.406,1.406,0,0,0-1.882-.621Zm7.136,30.071a1.4,1.4,0,1,1-1.4-1.4A1.4,1.4,0,0,1,43.219,40.809Z" transform="translate(-2.571 -8.571)" fill="#fff"/>
</svg>
