<svg xmlns="http://www.w3.org/2000/svg" width="23.998" height="26.251" viewBox="0 0 23.998 26.251">
  <path id="reshot-icon-store-ZV6DHYQBAR" d="M26.706,7.388a4.069,4.069,0,0,1-3.1,5.051,3.978,3.978,0,0,1-4.674-3.585L18.873,8.2a3.977,3.977,0,0,1-3.96,4.3h-.108a3.977,3.977,0,0,1-3.963-4.306l-.041.492a4.1,4.1,0,0,1-3.714,3.806A3.977,3.977,0,0,1,2.969,7.56L4.111,2.994A1.313,1.313,0,0,1,5.384,2h18.95a1.313,1.313,0,0,1,1.273.994Zm-3.813,7.737a6.59,6.59,0,0,0,2.466-.484v12.3a1.313,1.313,0,0,1-1.313,1.313H5.672a1.313,1.313,0,0,1-1.313-1.313v-12.3a6.45,6.45,0,0,0,6.441-.9,6.735,6.735,0,0,0,4.115,1.381,6.6,6.6,0,0,0,4-1.381,6.533,6.533,0,0,0,3.974,1.381Zm-5.409,6.563a2.625,2.625,0,1,0-5.25,0v3.938h5.25Z" transform="translate(-2.851 -2)" fill="#fff"/>
</svg>
