<svg xmlns="http://www.w3.org/2000/svg" width="37.075" height="37.261" viewBox="0 0 37.075 37.261">
  <path id="update" d="M32.005,17.447a1.533,1.533,0,0,1,3.064,0A17.535,17.535,0,0,1,5.014,29.721v3.533a1.533,1.533,0,0,1-3.066,0V25.382a1.533,1.533,0,0,1,1.533-1.519h7.958a1.533,1.533,0,1,1,0,3.064H6.576A14.474,14.474,0,0,0,32,17.458ZM30.489,1.368a1.533,1.533,0,1,1,3.064,0V9.314a1.533,1.533,0,0,1-1.519,1.53H24.151a1.533,1.533,0,1,1,0-3.064h4.165A14.474,14.474,0,0,0,3.06,17.447a1.533,1.533,0,1,1-3.064,0A17.54,17.54,0,0,1,30.489,5.633Z" transform="translate(1.006 1.267)" fill="#fff" stroke="#fff" stroke-width="2"/>
</svg>
